<svg xmlns="http://www.w3.org/2000/svg" width="40.802" height="40.802" viewBox="0 0 40.802 40.802">
  <g id="noun_Discount_681891" transform="translate(-13.027 26.22) rotate(-45)">
    <path id="Path_55" data-name="Path 55" d="M18.71,36.2H36.795a3.13,3.13,0,0,0,3.13-3.13V13.183a3.13,3.13,0,0,0-1.178-2.447L29.7,3.521a3.13,3.13,0,0,0-3.89,0l-9.057,7.214a3.13,3.13,0,0,0-1.178,2.447V33.071a3.13,3.13,0,0,0,3.13,3.13ZM35.759,27.07a3.4,3.4,0,0,1-3.116,3.6,3.393,3.393,0,0,1-3.123-3.6,3.388,3.388,0,0,1,3.116-3.6A3.4,3.4,0,0,1,35.759,27.07Zm-4.276-9.318a.941.941,0,0,1,.354,1.28L25.295,30.7a.942.942,0,0,1-1.644-.919l6.542-11.67a.941.941,0,0,1,1.291-.361ZM27.752,8.741a2.323,2.323,0,1,1-2.323,2.323,2.323,2.323,0,0,1,2.323-2.323Zm-4.891,9.421a3.4,3.4,0,0,1,3.123,3.6,3.4,3.4,0,0,1-3.116,3.6,3.4,3.4,0,0,1-3.116-3.6A3.383,3.383,0,0,1,22.861,18.162Zm-1.231,3.6c0-.93.562-1.715,1.231-1.715s1.231.785,1.231,1.715-.562,1.715-1.231,1.715S21.631,22.7,21.631,21.762Zm9.782,5.3c0-.93.562-1.715,1.231-1.715s1.231.785,1.231,1.715-.562,1.715-1.231,1.715-1.231-.774-1.231-1.712Z" fill="#fff"/>
  </g>
</svg>
