<?xml version="1.0" encoding="utf-8"?>
<!-- Generator: Adobe Illustrator 19.0.0, SVG Export Plug-In . SVG Version: 6.00 Build 0)  -->
<svg version="1.1" id="Layer_1" xmlns="http://www.w3.org/2000/svg" xmlns:xlink="http://www.w3.org/1999/xlink" x="0px" y="0px"
	 viewBox="0 0 374.4 101" style="enable-background:new 0 0 374.4 101;" xml:space="preserve">
<style type="text/css">
	.st0{fill:#49C3D7;}
</style>
<g>
	<g>
		<polygon class="st0" points="0,0 84.6,0 84.6,11.5 48.4,11.5 48.4,98.7 36.3,98.7 36.3,11.5 0,11.5 		"/>
		<polygon class="st0" points="267.3,87 267.3,98.7 202.3,98.7 202.3,0 214.6,0 214.6,87 		"/>
		<path class="st0" d="M166.4,0h12.2v58.8c0,5.7-0.7,11.1-1.8,16.1c-1.2,5.2-3.4,9.7-6.4,13.5c-3,3.9-7.1,7-12,9.2
			c-4.9,2.3-11,3.4-18.1,3.4c-7.2,0-13.3-1.1-18.2-3.4c-5-2.2-9-5.3-12-9.2c-3-3.9-5.1-8.4-6.3-13.5c-1.2-5-1.8-10.4-1.8-16.1V0H114
			v55.3c0,5.1,0.4,9.9,1.2,14.2c0.8,4.1,2.2,7.6,4.1,10.6c1.9,2.9,4.5,5.1,7.8,6.7c3.4,1.6,7.7,2.4,13.1,2.4c5.3,0,9.7-0.8,13-2.4
			c3.3-1.6,5.9-3.8,7.8-6.7c2-2.9,3.4-6.5,4.1-10.6c0.8-4.3,1.2-9.1,1.2-14.2V0z"/>
	</g>
	<g>
		<path class="st0" d="M334,0h-10.4l-40.3,98.7h13.2l12-30.1h40.2l12.2,30.1h13.6L334,0z M313.1,56.9l15.4-38.3l15.4,38.3H313.1z"/>
	</g>
</g>
</svg>
